<mxfile host="Electron" modified="2025-01-27T22:09:47.436Z" agent="Mozilla/5.0 (Windows NT 10.0; Win64; x64) AppleWebKit/537.36 (KHTML, like Gecko) draw.io/24.6.4 Chrome/124.0.6367.207 Electron/30.0.6 Safari/537.36" etag="E2o2h5sMZY_UgRqdUlPw" version="24.6.4" type="device">
  <diagram name="Page-1" id="90a13364-a465-7bf4-72fc-28e22215d7a0">
    <mxGraphModel dx="3640.5" dy="1280" grid="1" gridSize="10" guides="1" tooltips="1" connect="1" arrows="1" fold="1" page="1" pageScale="1.5" pageWidth="1169" pageHeight="826" background="none" math="0" shadow="0">
      <root>
        <mxCell id="0" style=";html=1;" />
        <mxCell id="1" style=";html=1;" parent="0" />
        <mxCell id="3a17f1ce550125da-1" value="Software Control" style="whiteSpace=wrap;html=1;shadow=1;fontSize=20;fillColor=#f5f5f5;strokeColor=#666666;strokeWidth=2;dashed=1;" parent="1" vertex="1">
          <mxGeometry x="-380" y="460" width="150" height="60" as="geometry" />
        </mxCell>
        <mxCell id="3a17f1ce550125da-14" style="edgeStyle=elbowEdgeStyle;rounded=0;html=1;startArrow=none;startFill=0;jettySize=auto;orthogonalLoop=1;fontSize=18;elbow=vertical;" parent="1" source="3a17f1ce550125da-2" target="3a17f1ce550125da-5" edge="1">
          <mxGeometry relative="1" as="geometry" />
        </mxCell>
        <mxCell id="3a17f1ce550125da-15" style="edgeStyle=elbowEdgeStyle;rounded=0;html=1;startArrow=none;startFill=0;jettySize=auto;orthogonalLoop=1;fontSize=18;elbow=vertical;" parent="1" source="3a17f1ce550125da-2" target="3a17f1ce550125da-6" edge="1">
          <mxGeometry relative="1" as="geometry" />
        </mxCell>
        <mxCell id="3a17f1ce550125da-16" style="edgeStyle=elbowEdgeStyle;rounded=0;html=1;startArrow=none;startFill=0;jettySize=auto;orthogonalLoop=1;fontSize=18;elbow=vertical;" parent="1" source="3a17f1ce550125da-2" target="3a17f1ce550125da-7" edge="1">
          <mxGeometry relative="1" as="geometry" />
        </mxCell>
        <mxCell id="3a17f1ce550125da-17" style="edgeStyle=elbowEdgeStyle;rounded=0;html=1;startArrow=none;startFill=0;jettySize=auto;orthogonalLoop=1;fontSize=18;" parent="1" source="3a17f1ce550125da-10" target="3a17f1ce550125da-2" edge="1">
          <mxGeometry relative="1" as="geometry">
            <Array as="points">
              <mxPoint x="-270" y="870" />
            </Array>
          </mxGeometry>
        </mxCell>
        <mxCell id="3a17f1ce550125da-2" value="Custom switch Matrix&lt;div&gt;&lt;br&gt;&lt;/div&gt;&lt;div&gt;(switches, couplers, mixer, amps, attenu, splitters)&lt;/div&gt;" style="whiteSpace=wrap;html=1;shadow=1;fontSize=18;fillColor=#f5f5f5;strokeColor=#666666;" parent="1" vertex="1">
          <mxGeometry x="-390" y="570" width="170" height="280" as="geometry" />
        </mxCell>
        <mxCell id="VaFJ51Vrij-IO834Vrvq-28" style="edgeStyle=orthogonalEdgeStyle;rounded=0;orthogonalLoop=1;jettySize=auto;html=1;" edge="1" parent="1" source="3a17f1ce550125da-4" target="VaFJ51Vrij-IO834Vrvq-12">
          <mxGeometry relative="1" as="geometry" />
        </mxCell>
        <mxCell id="3a17f1ce550125da-4" value="Select&lt;br&gt;Product" style="whiteSpace=wrap;html=1;shadow=1;fontSize=18;align=center;verticalAlign=middle;fontFamily=Helvetica;enumerate=1;enumerateValue=3;" parent="1" vertex="1">
          <mxGeometry x="832" y="384" width="150" height="70" as="geometry" />
        </mxCell>
        <mxCell id="3a17f1ce550125da-5" value="Network Analyzer" style="whiteSpace=wrap;html=1;shadow=1;fontSize=18;fillColor=#f5f5f5;strokeColor=#666666;" parent="1" vertex="1">
          <mxGeometry x="-140" y="640" width="120" height="60" as="geometry" />
        </mxCell>
        <mxCell id="3a17f1ce550125da-6" value="Power Meter" style="whiteSpace=wrap;html=1;shadow=1;fontSize=18;fillColor=#f5f5f5;strokeColor=#666666;" parent="1" vertex="1">
          <mxGeometry x="-140" y="720" width="120" height="60" as="geometry" />
        </mxCell>
        <mxCell id="3a17f1ce550125da-7" value="Freq. Count" style="whiteSpace=wrap;html=1;shadow=1;fontSize=18;fillColor=#f5f5f5;strokeColor=#666666;" parent="1" vertex="1">
          <mxGeometry x="-140" y="800" width="120" height="60" as="geometry" />
        </mxCell>
        <mxCell id="3a17f1ce550125da-20" style="edgeStyle=elbowEdgeStyle;rounded=0;html=1;startArrow=none;startFill=0;jettySize=auto;orthogonalLoop=1;fontSize=18;elbow=vertical;" parent="1" source="3a17f1ce550125da-8" target="3a17f1ce550125da-2" edge="1">
          <mxGeometry relative="1" as="geometry">
            <Array as="points">
              <mxPoint x="-420" y="630" />
            </Array>
          </mxGeometry>
        </mxCell>
        <mxCell id="3a17f1ce550125da-8" value="Vector Signal Generator" style="whiteSpace=wrap;html=1;shadow=1;fontSize=18;fillColor=#f5f5f5;strokeColor=#666666;" parent="1" vertex="1">
          <mxGeometry x="-580" y="560" width="120" height="150" as="geometry" />
        </mxCell>
        <mxCell id="3a17f1ce550125da-21" style="edgeStyle=elbowEdgeStyle;rounded=0;html=1;startArrow=none;startFill=0;jettySize=auto;orthogonalLoop=1;fontSize=18;elbow=vertical;" parent="1" source="3a17f1ce550125da-9" target="3a17f1ce550125da-2" edge="1">
          <mxGeometry relative="1" as="geometry" />
        </mxCell>
        <mxCell id="3a17f1ce550125da-9" value="ARB / Mod Source" style="whiteSpace=wrap;html=1;shadow=1;fontSize=18;fillColor=#f5f5f5;strokeColor=#666666;" parent="1" vertex="1">
          <mxGeometry x="-580" y="750" width="120" height="60" as="geometry" />
        </mxCell>
        <mxCell id="3a17f1ce550125da-10" value="DUT" style="whiteSpace=wrap;html=1;shadow=1;fontSize=18;fillColor=#f5f5f5;strokeColor=#666666;" parent="1" vertex="1">
          <mxGeometry x="-377.5" y="890" width="145" height="120" as="geometry" />
        </mxCell>
        <mxCell id="3a17f1ce550125da-18" style="edgeStyle=elbowEdgeStyle;rounded=0;html=1;startArrow=none;startFill=0;jettySize=auto;orthogonalLoop=1;fontSize=18;elbow=vertical;" parent="1" source="3a17f1ce550125da-11" target="3a17f1ce550125da-10" edge="1">
          <mxGeometry relative="1" as="geometry" />
        </mxCell>
        <mxCell id="3a17f1ce550125da-11" value="DC Power Supplies" style="whiteSpace=wrap;html=1;shadow=1;fontSize=18;fillColor=#f5f5f5;strokeColor=#666666;" parent="1" vertex="1">
          <mxGeometry x="-580" y="920" width="120" height="60" as="geometry" />
        </mxCell>
        <mxCell id="3a17f1ce550125da-22" style="edgeStyle=elbowEdgeStyle;rounded=0;html=1;startArrow=none;startFill=0;jettySize=auto;orthogonalLoop=1;fontSize=18;" parent="1" source="3a17f1ce550125da-10" target="3a17f1ce550125da-2" edge="1">
          <mxGeometry relative="1" as="geometry">
            <mxPoint x="-240" y="900" as="sourcePoint" />
            <mxPoint x="-240" y="860" as="targetPoint" />
            <Array as="points">
              <mxPoint x="-250" y="870" />
              <mxPoint x="-270" y="870" />
            </Array>
          </mxGeometry>
        </mxCell>
        <mxCell id="3a17f1ce550125da-23" style="edgeStyle=elbowEdgeStyle;rounded=0;html=1;startArrow=none;startFill=0;jettySize=auto;orthogonalLoop=1;fontSize=18;" parent="1" edge="1">
          <mxGeometry relative="1" as="geometry">
            <mxPoint x="-290" y="890" as="sourcePoint" />
            <mxPoint x="-290" y="850" as="targetPoint" />
            <Array as="points">
              <mxPoint x="-290" y="870" />
              <mxPoint x="-290" y="870" />
            </Array>
          </mxGeometry>
        </mxCell>
        <mxCell id="3a17f1ce550125da-24" style="edgeStyle=elbowEdgeStyle;rounded=0;html=1;startArrow=none;startFill=0;jettySize=auto;orthogonalLoop=1;fontSize=18;" parent="1" edge="1">
          <mxGeometry relative="1" as="geometry">
            <mxPoint x="-320" y="850" as="sourcePoint" />
            <mxPoint x="-320" y="890" as="targetPoint" />
            <Array as="points">
              <mxPoint x="-320" y="870" />
              <mxPoint x="-290" y="880" />
            </Array>
          </mxGeometry>
        </mxCell>
        <mxCell id="3a17f1ce550125da-25" style="edgeStyle=elbowEdgeStyle;rounded=0;html=1;startArrow=none;startFill=0;jettySize=auto;orthogonalLoop=1;fontSize=18;" parent="1" edge="1">
          <mxGeometry relative="1" as="geometry">
            <mxPoint x="-340" y="850" as="sourcePoint" />
            <mxPoint x="-340" y="890" as="targetPoint" />
            <Array as="points">
              <mxPoint x="-340" y="870" />
              <mxPoint x="-310" y="880" />
            </Array>
          </mxGeometry>
        </mxCell>
        <mxCell id="3a17f1ce550125da-26" style="edgeStyle=elbowEdgeStyle;rounded=0;html=1;startArrow=none;startFill=0;jettySize=auto;orthogonalLoop=1;fontSize=18;" parent="1" edge="1">
          <mxGeometry relative="1" as="geometry">
            <mxPoint x="-360" y="850" as="sourcePoint" />
            <mxPoint x="-360" y="890" as="targetPoint" />
            <Array as="points">
              <mxPoint x="-360" y="870" />
              <mxPoint x="-330" y="880" />
            </Array>
          </mxGeometry>
        </mxCell>
        <mxCell id="VaFJ51Vrij-IO834Vrvq-2" value="&lt;font style=&quot;font-size: 20px;&quot;&gt;&lt;b&gt;&amp;nbsp; &amp;nbsp;Query Services Coreography&lt;/b&gt;&lt;/font&gt;" style="shape=cube;whiteSpace=wrap;html=1;boundedLbl=1;backgroundOutline=1;darkOpacity=0.05;darkOpacity2=0.1;align=left;verticalAlign=top;shadow=0;fillColor=#e1d5e7;strokeColor=#000000;gradientColor=#FFFFFF;gradientDirection=radial;strokeWidth=2;" vertex="1" parent="1">
          <mxGeometry x="483" y="640" width="590" height="360" as="geometry" />
        </mxCell>
        <mxCell id="VaFJ51Vrij-IO834Vrvq-5" style="edgeStyle=orthogonalEdgeStyle;rounded=0;orthogonalLoop=1;jettySize=auto;html=1;entryX=0;entryY=0.5;entryDx=0;entryDy=0;" edge="1" parent="1" source="VaFJ51Vrij-IO834Vrvq-3" target="VaFJ51Vrij-IO834Vrvq-4">
          <mxGeometry relative="1" as="geometry" />
        </mxCell>
        <mxCell id="VaFJ51Vrij-IO834Vrvq-29" style="edgeStyle=orthogonalEdgeStyle;rounded=0;orthogonalLoop=1;jettySize=auto;html=1;entryX=0;entryY=0.5;entryDx=0;entryDy=0;" edge="1" parent="1" source="VaFJ51Vrij-IO834Vrvq-4" target="3a17f1ce550125da-4">
          <mxGeometry relative="1" as="geometry" />
        </mxCell>
        <mxCell id="VaFJ51Vrij-IO834Vrvq-4" value="Query Side&lt;br style=&quot;font-size: 20px;&quot;&gt;Services&lt;br style=&quot;font-size: 20px;&quot;&gt;&lt;div style=&quot;font-size: 20px;&quot;&gt;&lt;br style=&quot;font-size: 20px;&quot;&gt;&lt;/div&gt;&lt;div style=&quot;font-size: 20px;&quot;&gt;(restrictive validations, CRM, credit record, CDP, Citizen validation, etc)&lt;/div&gt;" style="whiteSpace=wrap;html=1;shadow=1;fontSize=20;rounded=1;strokeWidth=2;fillColor=#e1d5e7;strokeColor=#000000;gradientDirection=radial;gradientColor=#FFFFFF;fontStyle=1;enumerate=1;enumerateValue=2;" vertex="1" parent="1">
          <mxGeometry x="610" y="280" width="180" height="280" as="geometry" />
        </mxCell>
        <mxCell id="VaFJ51Vrij-IO834Vrvq-6" value="" style="verticalLabelPosition=bottom;sketch=0;aspect=fixed;html=1;verticalAlign=top;strokeColor=none;align=center;outlineConnect=0;shape=mxgraph.citrix.access_card;" vertex="1" parent="1">
          <mxGeometry x="447.25" y="289" width="55.5" height="75" as="geometry" />
        </mxCell>
        <mxCell id="VaFJ51Vrij-IO834Vrvq-7" value="" style="sketch=0;pointerEvents=1;shadow=0;dashed=0;html=1;strokeColor=none;fillColor=#505050;labelPosition=center;verticalLabelPosition=bottom;verticalAlign=top;outlineConnect=0;align=center;shape=mxgraph.office.services.verification_service;" vertex="1" parent="1">
          <mxGeometry x="676.5" y="212.5" width="57" height="59" as="geometry" />
        </mxCell>
        <mxCell id="VaFJ51Vrij-IO834Vrvq-10" value="Spectrum Analyzer" style="whiteSpace=wrap;html=1;shadow=1;fontSize=18;fillColor=#f5f5f5;strokeColor=#666666;" vertex="1" parent="1">
          <mxGeometry x="-130" y="570" width="120" height="60" as="geometry" />
        </mxCell>
        <mxCell id="VaFJ51Vrij-IO834Vrvq-19" style="edgeStyle=orthogonalEdgeStyle;rounded=0;orthogonalLoop=1;jettySize=auto;html=1;entryX=0;entryY=0.5;entryDx=0;entryDy=0;" edge="1" parent="1" source="VaFJ51Vrij-IO834Vrvq-12" target="VaFJ51Vrij-IO834Vrvq-18">
          <mxGeometry relative="1" as="geometry" />
        </mxCell>
        <mxCell id="VaFJ51Vrij-IO834Vrvq-12" value="Forms&lt;br&gt;&lt;div&gt;(Pick up additional personal data)&lt;br&gt;&lt;/div&gt;" style="whiteSpace=wrap;html=1;shadow=1;fontSize=18;enumerate=1;enumerateValue=4;" vertex="1" parent="1">
          <mxGeometry x="1031" y="381.5" width="150" height="75" as="geometry" />
        </mxCell>
        <mxCell id="VaFJ51Vrij-IO834Vrvq-33" style="edgeStyle=orthogonalEdgeStyle;rounded=0;orthogonalLoop=1;jettySize=auto;html=1;curved=1;strokeWidth=4;" edge="1" parent="1" source="VaFJ51Vrij-IO834Vrvq-14" target="VaFJ51Vrij-IO834Vrvq-31">
          <mxGeometry relative="1" as="geometry" />
        </mxCell>
        <mxCell id="VaFJ51Vrij-IO834Vrvq-14" value="&lt;b style=&quot;font-size: 20px;&quot;&gt;&lt;font style=&quot;font-size: 20px;&quot;&gt;Command Side&lt;br&gt;Services&lt;br&gt;&lt;/font&gt;&lt;/b&gt;&lt;div style=&quot;font-size: 20px;&quot;&gt;&lt;b&gt;&lt;font style=&quot;font-size: 20px;&quot;&gt;&lt;br&gt;&lt;/font&gt;&lt;/b&gt;&lt;/div&gt;&lt;div style=&quot;font-size: 20px;&quot;&gt;&lt;b style=&quot;&quot;&gt;&lt;font style=&quot;font-size: 20px;&quot;&gt;(Product issuance, Notifications and Alerts, Logistics Management, CRM)&lt;/font&gt;&lt;/b&gt;&lt;/div&gt;" style="whiteSpace=wrap;html=1;shadow=1;fontSize=18;fillColor=#FFF2CC;strokeColor=#000000;rounded=1;strokeWidth=2;align=center;verticalAlign=middle;fontFamily=Helvetica;fontColor=default;gradientColor=#FFFFFF;gradientDirection=radial;enumerate=1;enumerateValue=6;" vertex="1" parent="1">
          <mxGeometry x="1430" y="280" width="180" height="280" as="geometry" />
        </mxCell>
        <mxCell id="VaFJ51Vrij-IO834Vrvq-16" value="" style="sketch=0;pointerEvents=1;shadow=0;dashed=0;html=1;strokeColor=none;labelPosition=center;verticalLabelPosition=bottom;verticalAlign=top;align=center;fillColor=#505050;shape=mxgraph.mscae.oms.config_assessment" vertex="1" parent="1">
          <mxGeometry x="1493.9999999999998" y="212.5" width="61.67" height="55.5" as="geometry" />
        </mxCell>
        <mxCell id="VaFJ51Vrij-IO834Vrvq-20" style="edgeStyle=orthogonalEdgeStyle;rounded=0;orthogonalLoop=1;jettySize=auto;html=1;entryX=0;entryY=0.5;entryDx=0;entryDy=0;" edge="1" parent="1" source="VaFJ51Vrij-IO834Vrvq-18" target="VaFJ51Vrij-IO834Vrvq-14">
          <mxGeometry relative="1" as="geometry" />
        </mxCell>
        <mxCell id="VaFJ51Vrij-IO834Vrvq-18" value="Agreement" style="whiteSpace=wrap;html=1;shadow=1;fontSize=18;enumerate=1;enumerateValue=5;" vertex="1" parent="1">
          <mxGeometry x="1237.5" y="380.25" width="143" height="77.5" as="geometry" />
        </mxCell>
        <mxCell id="VaFJ51Vrij-IO834Vrvq-58" value="" style="edgeStyle=orthogonalEdgeStyle;rounded=0;orthogonalLoop=1;jettySize=auto;html=1;" edge="1" parent="1" source="VaFJ51Vrij-IO834Vrvq-21" target="3a17f1ce550125da-4">
          <mxGeometry relative="1" as="geometry" />
        </mxCell>
        <mxCell id="VaFJ51Vrij-IO834Vrvq-21" value="" style="verticalLabelPosition=bottom;aspect=fixed;html=1;shape=mxgraph.salesforce.commerce;fillColor=#505050;gradientColor=#b3b3b3;strokeColor=#666666;shadow=0;dashed=0;sketch=0;pointerEvents=1;align=center;verticalAlign=top;fontFamily=Helvetica;fontSize=12;fontColor=default;" vertex="1" parent="1">
          <mxGeometry x="884.28" y="330" width="45.45" height="40" as="geometry" />
        </mxCell>
        <mxCell id="VaFJ51Vrij-IO834Vrvq-24" value="" style="image;aspect=fixed;perimeter=ellipsePerimeter;html=1;align=center;shadow=0;dashed=0;fontColor=#4277BB;labelBackgroundColor=default;fontSize=12;spacingTop=3;image=img/lib/ibm/blockchain/smart_contract.svg;" vertex="1" parent="1">
          <mxGeometry x="1284.5" y="325" width="45" height="45" as="geometry" />
        </mxCell>
        <mxCell id="VaFJ51Vrij-IO834Vrvq-25" value="" style="sketch=0;pointerEvents=1;shadow=0;dashed=0;html=1;strokeColor=none;fillColor=#505050;labelPosition=center;verticalLabelPosition=bottom;verticalAlign=top;outlineConnect=0;align=center;shape=mxgraph.office.concepts.form;" vertex="1" parent="1">
          <mxGeometry x="1081" y="325.5" width="56" height="49" as="geometry" />
        </mxCell>
        <mxCell id="VaFJ51Vrij-IO834Vrvq-26" value="&lt;b&gt;&lt;font style=&quot;font-size: 24px;&quot;&gt;Pattern CQRS: Command Query Responsability Segregation&lt;/font&gt;&lt;/b&gt;" style="text;html=1;align=left;verticalAlign=middle;resizable=0;points=[];autosize=1;strokeColor=none;fillColor=none;" vertex="1" parent="1">
          <mxGeometry x="330" y="90" width="710" height="40" as="geometry" />
        </mxCell>
        <mxCell id="VaFJ51Vrij-IO834Vrvq-3" value="Required minimum &lt;br&gt;personal data" style="whiteSpace=wrap;html=1;shadow=1;fontSize=18;enumerate=1;enumerateValue=1;" vertex="1" parent="1">
          <mxGeometry x="400" y="384" width="150" height="70" as="geometry" />
        </mxCell>
        <mxCell id="VaFJ51Vrij-IO834Vrvq-30" value="&lt;b&gt;&lt;font style=&quot;font-size: 24px;&quot;&gt;Use Case: Customer Digital Journey&lt;/font&gt;&lt;/b&gt;" style="text;html=1;align=left;verticalAlign=middle;resizable=0;points=[];autosize=1;strokeColor=none;fillColor=none;" vertex="1" parent="1">
          <mxGeometry x="330" y="130" width="440" height="40" as="geometry" />
        </mxCell>
        <mxCell id="VaFJ51Vrij-IO834Vrvq-31" value="&lt;span style=&quot;font-size: 20px;&quot;&gt;&lt;b&gt;&amp;nbsp; &amp;nbsp;Command Services&amp;nbsp;&lt;/b&gt;&lt;/span&gt;&lt;b style=&quot;font-size: 20px;&quot;&gt;Coreography&lt;/b&gt;" style="shape=cube;whiteSpace=wrap;html=1;boundedLbl=1;backgroundOutline=1;darkOpacity=0.05;darkOpacity2=0.1;align=left;verticalAlign=top;shadow=0;gradientColor=#FFFFFF;fillColor=#FFF2CC;gradientDirection=radial;strokeWidth=2;" vertex="1" parent="1">
          <mxGeometry x="1153" y="640" width="590" height="360" as="geometry" />
        </mxCell>
        <mxCell id="VaFJ51Vrij-IO834Vrvq-32" style="edgeStyle=orthogonalEdgeStyle;rounded=0;orthogonalLoop=1;jettySize=auto;html=1;entryX=0;entryY=0;entryDx=270;entryDy=0;entryPerimeter=0;curved=1;strokeWidth=4;" edge="1" parent="1" source="VaFJ51Vrij-IO834Vrvq-4" target="VaFJ51Vrij-IO834Vrvq-2">
          <mxGeometry relative="1" as="geometry" />
        </mxCell>
        <mxCell id="VaFJ51Vrij-IO834Vrvq-36" value="" style="shape=cylinder3;whiteSpace=wrap;html=1;boundedLbl=1;backgroundOutline=1;size=15;rotation=90;labelPosition=center;verticalLabelPosition=middle;align=center;verticalAlign=middle;fillColor=#f5f5f5;fontColor=#333333;strokeColor=#666666;" vertex="1" parent="1">
          <mxGeometry x="771.5" y="510" width="40" height="460" as="geometry" />
        </mxCell>
        <mxCell id="VaFJ51Vrij-IO834Vrvq-37" value="Event Broker" style="text;html=1;align=center;verticalAlign=middle;resizable=0;points=[];autosize=1;strokeColor=none;fillColor=none;fontStyle=1;fontSize=19;" vertex="1" parent="1">
          <mxGeometry x="706.5" y="720" width="130" height="40" as="geometry" />
        </mxCell>
        <mxCell id="VaFJ51Vrij-IO834Vrvq-43" value="" style="shape=cylinder3;whiteSpace=wrap;html=1;boundedLbl=1;backgroundOutline=1;size=15;rotation=90;labelPosition=center;verticalLabelPosition=middle;align=center;verticalAlign=middle;fillColor=#f5f5f5;fontColor=#333333;strokeColor=#666666;" vertex="1" parent="1">
          <mxGeometry x="1439" y="510" width="40" height="460" as="geometry" />
        </mxCell>
        <mxCell id="VaFJ51Vrij-IO834Vrvq-44" value="&lt;span style=&quot;color: rgb(0, 0, 0); font-family: Helvetica; font-size: 19px; font-style: normal; font-variant-ligatures: normal; font-variant-caps: normal; font-weight: 700; letter-spacing: normal; orphans: 2; text-align: center; text-indent: 0px; text-transform: none; widows: 2; word-spacing: 0px; -webkit-text-stroke-width: 0px; white-space: nowrap; background-color: rgb(251, 251, 251); text-decoration-thickness: initial; text-decoration-style: initial; text-decoration-color: initial; display: inline !important; float: none;&quot;&gt;Event Broker&lt;/span&gt;" style="text;whiteSpace=wrap;html=1;" vertex="1" parent="1">
          <mxGeometry x="1389" y="720" width="150" height="50" as="geometry" />
        </mxCell>
        <mxCell id="VaFJ51Vrij-IO834Vrvq-45" value="&lt;font style=&quot;font-size: 16px;&quot;&gt;«Service»&lt;br style=&quot;&quot;&gt;&lt;b&gt;Citizen Validation&lt;/b&gt;&lt;br&gt;&lt;/font&gt;" style="html=1;dropTarget=0;whiteSpace=wrap;fontSize=9;rounded=1;align=center;verticalAlign=middle;fontFamily=Helvetica;fillColor=#f5f5f5;fontColor=#333333;strokeColor=#666666;" vertex="1" parent="1">
          <mxGeometry x="536.5" y="785" width="160" height="80" as="geometry" />
        </mxCell>
        <mxCell id="VaFJ51Vrij-IO834Vrvq-47" value="&lt;font style=&quot;font-size: 16px;&quot;&gt;«Service»&lt;br style=&quot;&quot;&gt;&lt;b&gt;Query Credit &lt;br&gt;Record&lt;/b&gt;&lt;/font&gt;" style="html=1;dropTarget=0;whiteSpace=wrap;fontSize=9;rounded=1;align=center;verticalAlign=middle;fontFamily=Helvetica;fillColor=#f5f5f5;fontColor=#333333;strokeColor=#666666;" vertex="1" parent="1">
          <mxGeometry x="710.5" y="785" width="160" height="80" as="geometry" />
        </mxCell>
        <mxCell id="VaFJ51Vrij-IO834Vrvq-48" value="&lt;font style=&quot;font-size: 16px;&quot;&gt;«Service»&lt;br style=&quot;&quot;&gt;&lt;b&gt;Customer&lt;br&gt;CRM&lt;/b&gt;&lt;/font&gt;" style="html=1;dropTarget=0;whiteSpace=wrap;fontSize=9;rounded=1;align=center;verticalAlign=middle;fontFamily=Helvetica;fillColor=#f5f5f5;fontColor=#333333;strokeColor=#666666;" vertex="1" parent="1">
          <mxGeometry x="536.5" y="875" width="160" height="80" as="geometry" />
        </mxCell>
        <mxCell id="VaFJ51Vrij-IO834Vrvq-49" value="&lt;font style=&quot;font-size: 16px;&quot;&gt;«Service»&lt;br style=&quot;&quot;&gt;&lt;b&gt;Customer&lt;br&gt;CDP&lt;/b&gt;&lt;/font&gt;" style="html=1;dropTarget=0;whiteSpace=wrap;fontSize=9;rounded=1;align=center;verticalAlign=middle;fontFamily=Helvetica;fillColor=#f5f5f5;fontColor=#333333;strokeColor=#666666;" vertex="1" parent="1">
          <mxGeometry x="710.5" y="875" width="160" height="80" as="geometry" />
        </mxCell>
        <mxCell id="VaFJ51Vrij-IO834Vrvq-50" value="&lt;font style=&quot;font-size: 16px;&quot;&gt;«Service»&lt;br style=&quot;&quot;&gt;&lt;b&gt;Restrictive&lt;br&gt;Validations&lt;/b&gt;&lt;/font&gt;" style="html=1;dropTarget=0;whiteSpace=wrap;fontSize=9;rounded=1;align=center;verticalAlign=middle;fontFamily=Helvetica;fillColor=#f5f5f5;fontColor=#333333;strokeColor=#666666;" vertex="1" parent="1">
          <mxGeometry x="886.5" y="785" width="160" height="80" as="geometry" />
        </mxCell>
        <mxCell id="VaFJ51Vrij-IO834Vrvq-51" value="&lt;font style=&quot;font-size: 16px;&quot;&gt;«Service»&lt;br style=&quot;&quot;&gt;&lt;b&gt;Get Availble Products&lt;br&gt;&lt;/b&gt;&lt;/font&gt;" style="html=1;dropTarget=0;whiteSpace=wrap;fontSize=9;rounded=1;align=center;verticalAlign=middle;fontFamily=Helvetica;fillColor=#f5f5f5;fontColor=#333333;strokeColor=#666666;" vertex="1" parent="1">
          <mxGeometry x="886.5" y="875" width="160" height="80" as="geometry" />
        </mxCell>
        <mxCell id="VaFJ51Vrij-IO834Vrvq-52" value="&lt;font style=&quot;font-size: 16px;&quot;&gt;«Service»&lt;br style=&quot;&quot;&gt;&lt;b&gt;Product Emission&lt;/b&gt;&lt;br&gt;&lt;/font&gt;" style="html=1;dropTarget=0;whiteSpace=wrap;fontSize=9;rounded=1;align=center;verticalAlign=middle;fontFamily=Helvetica;fillColor=#f5f5f5;fontColor=#333333;strokeColor=#666666;" vertex="1" parent="1">
          <mxGeometry x="1209" y="780" width="160" height="80" as="geometry" />
        </mxCell>
        <mxCell id="VaFJ51Vrij-IO834Vrvq-53" value="&lt;font style=&quot;font-size: 16px;&quot;&gt;«Service»&lt;br style=&quot;&quot;&gt;&lt;b&gt;Notification and Welcome Package&lt;/b&gt;&lt;/font&gt;" style="html=1;dropTarget=0;whiteSpace=wrap;fontSize=9;rounded=1;align=center;verticalAlign=middle;fontFamily=Helvetica;fillColor=#f5f5f5;fontColor=#333333;strokeColor=#666666;" vertex="1" parent="1">
          <mxGeometry x="1383" y="780" width="160" height="80" as="geometry" />
        </mxCell>
        <mxCell id="VaFJ51Vrij-IO834Vrvq-54" value="&lt;font style=&quot;font-size: 16px;&quot;&gt;«Service»&lt;br style=&quot;&quot;&gt;&lt;b&gt;Customer CRM Update&amp;nbsp;&lt;/b&gt;&lt;/font&gt;" style="html=1;dropTarget=0;whiteSpace=wrap;fontSize=9;rounded=1;align=center;verticalAlign=middle;fontFamily=Helvetica;fillColor=#f5f5f5;fontColor=#333333;strokeColor=#666666;" vertex="1" parent="1">
          <mxGeometry x="1209" y="870" width="160" height="80" as="geometry" />
        </mxCell>
        <mxCell id="VaFJ51Vrij-IO834Vrvq-55" value="&lt;font style=&quot;font-size: 16px;&quot;&gt;«Service»&lt;br style=&quot;&quot;&gt;&lt;b&gt;Update Stock&amp;nbsp;&lt;/b&gt;&lt;/font&gt;" style="html=1;dropTarget=0;whiteSpace=wrap;fontSize=9;rounded=1;align=center;verticalAlign=middle;fontFamily=Helvetica;fillColor=#f5f5f5;fontColor=#333333;strokeColor=#666666;" vertex="1" parent="1">
          <mxGeometry x="1383" y="870" width="160" height="80" as="geometry" />
        </mxCell>
        <mxCell id="VaFJ51Vrij-IO834Vrvq-56" value="&lt;font style=&quot;font-size: 16px;&quot;&gt;«Service»&lt;br style=&quot;&quot;&gt;&lt;b&gt;Logistics Order&lt;/b&gt;&lt;/font&gt;" style="html=1;dropTarget=0;whiteSpace=wrap;fontSize=9;rounded=1;align=center;verticalAlign=middle;fontFamily=Helvetica;fillColor=#f5f5f5;fontColor=#333333;strokeColor=#666666;" vertex="1" parent="1">
          <mxGeometry x="1559" y="780" width="160" height="80" as="geometry" />
        </mxCell>
        <mxCell id="VaFJ51Vrij-IO834Vrvq-57" value="&lt;font style=&quot;font-size: 16px;&quot;&gt;«Service»&lt;br style=&quot;&quot;&gt;&lt;b&gt;Compensations&lt;/b&gt;&lt;/font&gt;" style="html=1;dropTarget=0;whiteSpace=wrap;fontSize=9;rounded=1;align=center;verticalAlign=middle;fontFamily=Helvetica;fillColor=#f5f5f5;fontColor=#333333;strokeColor=#666666;" vertex="1" parent="1">
          <mxGeometry x="1559" y="870" width="160" height="80" as="geometry" />
        </mxCell>
      </root>
    </mxGraphModel>
  </diagram>
</mxfile>
